<svg preserveAspectRatio="xMidYMid meet" data-bbox="0.008 0 205.292 47.76" viewBox="0.008 0 205.292 47.76" height="47.76" width="205.3" xmlns="http://www.w3.org/2000/svg" data-type="color" role="presentation" aria-hidden="true" aria-label="">
    <g>
        <path fill="#214325" d="M87.01 42.52v-4.33h.09l2.88 3.32v-3.32h.43v4.33h-.1l-2.86-3.28v3.28z" data-color="1"></path>
        <path fill="#214325" d="M94.49 38.08q.99 0 1.65.66t.66 1.62c0 .96-.22 1.17-.66 1.61s-.98.66-1.61.66-1.19-.22-1.63-.66-.66-.97-.66-1.6c0-.42.1-.8.3-1.16s.48-.63.82-.83c.35-.2.73-.3 1.13-.3m.02.42c-.32 0-.62.08-.91.25s-.51.39-.67.67-.24.6-.24.95c0 .52.18.95.54 1.3.36.36.79.53 1.29.53q.51 0 .93-.24c.42-.24.51-.39.67-.67s.24-.6.24-.94-.08-.66-.24-.93c-.16-.28-.39-.5-.68-.67s-.6-.25-.93-.25" data-color="1"></path>
        <path fill="#214325" d="m98.19 41.71.37-.22q.39.72.9.72c.15 0 .28-.03.41-.1s.23-.16.29-.27c.07-.11.1-.23.1-.36 0-.15-.05-.29-.15-.43-.14-.19-.38-.42-.74-.69s-.59-.47-.67-.59c-.15-.2-.23-.42-.23-.66 0-.19.05-.36.14-.51.09-.16.22-.28.38-.37s.34-.14.53-.14.39.05.57.15.37.29.57.56l-.35.27c-.16-.22-.3-.36-.42-.43a.7.7 0 0 0-.38-.1c-.17 0-.32.05-.43.16s-.17.24-.17.39c0 .09.02.19.06.27s.11.18.22.29c.06.06.24.2.56.43.38.28.63.52.77.74s.21.43.21.65c0 .31-.12.59-.36.82s-.53.35-.87.35q-.39 0-.72-.21c-.21-.14-.41-.38-.59-.7" data-color="1"></path>
        <path fill="#214325" d="M105.24 38.19h.86c.5 0 .83.02 1 .06.25.06.45.19.61.38s.24.43.24.71-.08.53-.23.71c-.15.19-.36.31-.63.38-.2.05-.56.07-1.1.07h-.31v2.01h-.43v-4.33Zm.44.42v1.47h.73c.3 0 .51-.02.65-.07s.24-.14.32-.26.12-.25.12-.4-.04-.28-.12-.4a.65.65 0 0 0-.31-.26c-.13-.05-.34-.08-.63-.08h-.77Z" data-color="1"></path>
        <path fill="#214325" d="M111.84 38.08q.99 0 1.65.66t.66 1.62c0 .96-.22 1.17-.66 1.61s-.98.66-1.61.66-1.19-.22-1.63-.66-.66-.97-.66-1.6c0-.42.1-.8.3-1.16s.48-.63.82-.83c.35-.2.73-.3 1.13-.3m.02.42c-.32 0-.62.08-.91.25s-.51.39-.67.67-.24.6-.24.95c0 .52.18.95.54 1.3.36.36.79.53 1.29.53q.51 0 .93-.24c.42-.24.51-.39.67-.67s.24-.6.24-.94-.08-.66-.24-.93c-.16-.28-.39-.5-.68-.67s-.6-.25-.93-.25" data-color="1"></path>
        <path fill="#214325" d="M115.99 42.52v-4.33h.1l2.88 3.32v-3.32h.43v4.33h-.1l-2.86-3.28v3.28z" data-color="1"></path>
        <path fill="#214325" d="M121.42 38.19h2.48v.42h-2.05v1.36h2.04v.42h-2.04v1.7h2.04v.43h-2.47z" data-color="1"></path>
        <path fill="#214325" d="m125.42 42.52.62-4.33h.07l1.76 3.55 1.75-3.55h.07l.62 4.33h-.42l-.43-3.1-1.53 3.1h-.12l-1.55-3.12-.42 3.12z" data-color="1"></path>
        <path fill="#214325" d="M134.19 38.08q.99 0 1.65.66t.66 1.62c0 .96-.22 1.17-.66 1.61s-.98.66-1.61.66-1.19-.22-1.63-.66-.66-.97-.66-1.6c0-.42.1-.8.3-1.16s.48-.63.82-.83c.35-.2.73-.3 1.13-.3m.02.42c-.32 0-.62.08-.91.25s-.51.39-.67.67-.24.6-.24.95c0 .52.18.95.54 1.3.36.36.79.53 1.29.53q.51 0 .93-.24c.29-.16.51-.39.67-.67s.24-.6.24-.94-.08-.66-.24-.93c-.16-.28-.39-.5-.68-.67s-.6-.25-.93-.25" data-color="1"></path>
        <path fill="#214325" d="m137.89 41.71.37-.22q.39.72.9.72c.15 0 .28-.03.41-.1s.23-.16.29-.27c.07-.11.1-.23.1-.36 0-.15-.05-.29-.15-.43-.14-.19-.38-.42-.74-.69s-.59-.47-.67-.59c-.15-.2-.23-.42-.23-.66 0-.19.04-.36.14-.51.09-.16.22-.28.38-.37s.34-.14.54-.14q.3 0 .57.15c.18.1.37.29.56.56l-.35.27c-.16-.22-.3-.36-.42-.43a.7.7 0 0 0-.38-.1c-.17 0-.32.05-.43.16s-.17.24-.17.39c0 .09.02.19.06.27.04.09.11.18.22.29.06.06.24.2.56.43.38.28.63.52.77.74s.21.43.21.65c0 .31-.12.59-.36.82s-.53.35-.87.35q-.39 0-.72-.21c-.21-.14-.41-.38-.59-.7" data-color="1"></path>
        <path fill="#214325" d="M144.94 38.19h2.49v.42h-2.05v1.36h2.03v.42h-2.03v1.7h2.03v.43h-2.47z" data-color="1"></path>
        <path fill="#214325" d="M149.14 42.52v-4.33h.1l2.88 3.32v-3.32h.43v4.33h-.1l-2.86-3.28v3.28z" data-color="1"></path>
        <path fill="#214325" d="M156.78 38.61v-.42h2.37v.42h-.97v3.91h-.44v-3.91z" data-color="1"></path>
        <path fill="#214325" d="M160.75 38.19h.43v2.62c0 .31 0 .5.02.58.02.17.07.31.15.43s.2.21.36.29.33.12.49.12a.98.98 0 0 0 .74-.34c.09-.11.15-.24.2-.39.03-.11.04-.33.04-.68V38.2h.43v2.62c0 .39-.04.7-.11.94s-.23.45-.45.62-.5.27-.82.27c-.35 0-.65-.08-.9-.25s-.42-.39-.5-.66c-.05-.17-.08-.47-.08-.91v-2.62Z" data-color="1"></path>
        <path fill="#214325" d="M168.29 38.19h.86c.5 0 .83.02 1 .06.25.06.45.19.61.38s.24.43.24.71-.08.53-.23.71c-.15.19-.36.31-.63.38-.2.05-.56.07-1.1.07h-.31v2.01h-.43v-4.33Zm.43.42v1.47h.73c.3 0 .51-.02.65-.07s.24-.14.32-.26.12-.25.12-.4-.04-.28-.12-.4a.65.65 0 0 0-.31-.26c-.13-.05-.34-.08-.63-.08h-.77Z" data-color="1"></path>
        <path fill="#214325" d="M173.19 38.19v4.33h-.43v-4.33z" data-color="1"></path>
        <path fill="#214325" d="M175.16 38.19h2.48v.42h-2.05v1.36h2.04v.42h-2.04v1.7h2.04v.43h-2.47z" data-color="1"></path>
        <path fill="#214325" d="M179.35 38.19h.44v3.91h1.66v.42h-2.1z" data-color="1"></path>
        <path fill="#79984c" d="M19.29 22.77c-4.12-2.15-7.18-6.46-8.2-11.69-.03-.13-.22-.13-.24 0-1.02 5.23-4.08 9.54-8.2 11.69-.62.32-1.93.78-2.56.99-.11.04-.11.2 0 .23.63.21 1.94.67 2.56.99 4.12 2.15 7.18 6.46 8.2 11.69.03.13.22.13.24 0 1.02-5.23 4.08-9.54 8.2-11.69.62-.32 1.93-.78 2.56-.99.11-.04.11-.2 0-.23-.63-.21-1.94-.67-2.56-.99" data-color="2"></path>
        <path fill="#214325" d="M16.24 36.9a21.6 21.6 0 0 0-2.91 10.86h21.72c8.04 0 15.05-4.37 18.8-10.86a21.6 21.6 0 0 0 2.91-10.86H35.04c-8.04 0-15.05 4.37-18.8 10.86" data-color="1"></path>
        <path fill="#214325" d="M16.24 10.86A21.6 21.6 0 0 1 13.33 0h21.72c8.04 0 15.05 4.37 18.8 10.86a21.6 21.6 0 0 1 2.91 10.86H35.04c-8.04 0-15.05-4.37-18.8-10.86" data-color="1"></path>
        <path fill="#214325" d="M83.37 20.3c0 10.66-11 10.19-11.25 10.19h-6.49V12.95c0-1.25-.92-2.53-2.48-2.7v-.14h8.96c.25.03 11.25-.64 11.25 10.19m-3.39 0c-.03-9.19-6.52-9.19-7.85-9.19h-3.43v18.32h3.43c1.06 0 7.91-.03 7.85-9.13" data-color="1"></path>
        <path fill="#214325" d="M88.1 23.06v.64c0 5.12 4.65 9.02 8.99 3.95l.47.45c-.17.36-1.73 2.78-5.74 2.78-4.29 0-6.79-3.12-6.79-7.18s2.51-7.16 6.79-7.16c5.12 0 5.76 3.93 5.76 5.46v1.06h-9.49Zm.08-1.06h6.07c-.06-3.03-.56-4.48-2.39-4.48s-3.31.98-3.68 4.48" data-color="1"></path>
        <path fill="#214325" d="M108.37 16.57v1.67c-2.03 0-4.23-.31-4.96 3.9v8.35h-2.78V19.38c0-1.25-.92-2.48-2.48-2.67v-.14h5.26v3.62c.81-2.98 2.51-3.62 4.96-3.62" data-color="1"></path>
        <path fill="#214325" d="m133.45 21.11-.03 9.38h-2.78v-9.22c0-2.64-1.56-3.81-2.76-3.81-1.7 0-2.73.78-3.48 1.81l-.03 11.22h-2.78v-9.22c0-2.64-1.56-3.81-2.76-3.81-1.67 0-2.81.89-3.54 1.78v11.25h-2.78V19.38c0-1.28-.89-2.5-2.48-2.7v-.14h5.26v1.48c.86-.81 2.03-1.48 3.56-1.48 2.51 0 4.06.81 4.87 2.03 1-1.17 2.42-2.03 4.18-2.03 3.95 0 5.54 2.34 5.54 4.57" data-color="1"></path>
        <path fill="#214325" d="m147.26 20.66-.03 9.83h-2.78v-2.06c-1.48 2.28-8.77 4.73-8.77-1.48 0-4.84 5.04-4.34 8.77-5.73v-1.36c0-1.73-.72-2.56-2.56-2.56-.95 0-2.98-.08-4.37 1.95l-.78-.22c1.23-2.23 3.4-2.59 5.1-2.59 4.01 0 5.43 1.64 5.43 4.23m-2.82 7.01v-5.65c-2.81.89-5.74.89-5.74 4.68s3.23 3.9 5.74.97" data-color="1"></path>
        <path fill="#214325" d="M153.33 10.11v20.38h-2.78V12.7c0-1.17-.97-2.28-2.45-2.45v-.14h5.24Z" data-color="1"></path>
        <path fill="#214325" d="m167.14 20.66-.03 9.83h-2.78v-2.06c-1.48 2.28-8.77 4.73-8.77-1.48 0-4.84 5.04-4.34 8.77-5.73v-1.36c0-1.73-.73-2.56-2.56-2.56-.95 0-2.98-.08-4.37 1.95l-.78-.22c1.22-2.23 3.4-2.59 5.1-2.59 4.01 0 5.43 1.64 5.43 4.23m-2.82 7.01v-5.65c-2.81.89-5.74.89-5.74 4.68s3.23 3.9 5.74.97" data-color="1"></path>
        <path fill="#214325" d="M180.31 27.2c0 2.28-2.62 3.68-5.99 3.68-2.03 0-4.96-.97-4.96-3.95h1.11c0 2.34 2.28 3.01 3.9 3.06 1.92 0 3.4-.78 3.4-2.06 0-1.81-1.5-2.12-4.01-3.23-1.59-.69-4.4-1.89-4.4-4.51 0-2.03 1.89-3.76 5.48-3.76 1 0 4.48.28 4.48 3.37h-.98c0-2.12-2.48-2.59-3.48-2.59-1.7 0-3.01.67-3.01 2.14s1.73 2.03 3.73 2.98c2.9 1.36 4.71 2.31 4.71 4.87" data-color="1"></path>
        <path fill="#214325" d="M185.04 23.06v.64c0 5.12 4.65 9.02 8.99 3.95l.47.45c-.17.36-1.73 2.78-5.74 2.78-4.29 0-6.79-3.12-6.79-7.18s2.51-7.16 6.79-7.16c5.12 0 5.76 3.93 5.76 5.46v1.06h-9.49Zm.08-1.06h6.07c-.06-3.03-.56-4.48-2.39-4.48s-3.31.98-3.68 4.48" data-color="1"></path>
        <path fill="#214325" d="M205.3 16.57v1.67c-2.03 0-4.23-.31-4.96 3.9v8.35h-2.78V19.38c0-1.25-.92-2.48-2.48-2.67v-.14h5.26v3.62c.81-2.98 2.51-3.62 4.96-3.62" data-color="1"></path>
    </g>
</svg>