<svg xmlns="http://www.w3.org/2000/svg" fill="none" height="23" viewBox="0 0 25 23" width="25"><path d="m12.503 23h-.006c-.0145-2.592-.0984-5.0809-.5856-6.3063-.8597-2.1625-1.5873-2.8741-3.76994-3.7259-1.49419-.5832-4.3766-.5832-8.14146-.5832 3.76486 0 6.64727 0 8.14146-.5831 2.18264-.8519 2.91024-1.5635 3.76994-3.72596.5886-1.4804.5886-4.34543.5886-8.07554 0 3.73011 0 6.59514.5886 8.07554.8597 2.16246 1.5873 2.87406 3.7699 3.72596 1.4942.5831 4.3766.5831 8.1415.5831-3.7649 0-6.6473 0-8.1415.5832-2.1826.8518-2.9102 1.5634-3.7699 3.7259-.4872 1.2254-.5711 3.7143-.5856 6.3063z" fill="#fff"></path></svg>