<svg xmlns="http://www.w3.org/2000/svg" fill="none" height="23" viewBox="0 0 25 23" width="25"><path d="m12.503 23h-.006c-.0145-2.592-.0984-4.0809-.5856-5.3063-.8597-2.1625-2.58729-3.8741-4.76994-4.7259-1.49419-.5832-3.3766-.5832-7.14146-.5832 3.76486 0 5.64727 0 7.14146-.5831 2.18265-.8519 3.91024-2.56346 4.76994-4.72596.5886-1.4804.5886-3.34543.5886-7.07554 0 3.73011 0 5.59514.5886 7.07554.8597 2.1625 2.5873 3.87406 4.7699 4.72596 1.4942.5831 3.3766.5831 7.1415.5831-3.7649 0-5.6473 0-7.1415.5832-2.1826.8518-3.9102 2.5634-4.7699 4.7259-.4872 1.2254-.5711 2.7143-.5856 5.3063z" fill="#000"></path></svg>